# xmcd
#
# Track frame offsets: 
#        150
#        16389
#        30886
#        57546
#        73680
#        91502
#        109492
#        124947
#        139558
#        151309
#        165440
#
# Disc length: 2411 seconds
#
# Revision: 0
# Processed by: cddbd v1.5.2PL0 Copyright (c) Steve Scherf et al.
# Submitted via: ExactAudioCopyFreeDBPlugin 1.0
#
DISCID=8609690b
DTITLE=Nitty Gritty Dirt Band - Icon
DYEAR=2013
DGENRE=Country
TTITLE0=Mr. Bojangles
TTITLE1=Some of Shelly's Blues
TTITLE2=Ripplin' Waters
TTITLE3=An American Dream
TTITLE4=Make a Little Magic
TTITLE5=Fire in the Sky
TTITLE6=Shot Full of Love
TTITLE7=Dance Little Jean
TTITLE8=When It's Gone
TTITLE9=Baby's Got a Hold on Me
TTITLE10=Fishin' in the Dark
EXTD=
EXTT0=
EXTT1=
EXTT2=
EXTT3=
EXTT4=
EXTT5=
EXTT6=
EXTT7=
EXTT8=
EXTT9=
EXTT10=
PLAYORDER=
